Coordinates
version=1
nRows=15
nColumns=34
inDegrees=yes

Units are S.I. units (second, meters, Newtons, ...)
If the header above contains a line with 'inDegrees', this indicates whether rotational values are in degrees (yes) or radians (no).

endheader
time	pelvis_tilt	pelvis_list	pelvis_rotation	pelvis_tx	pelvis_ty	pelvis_tz	hip_flexion_r	hip_adduction_r	hip_rotation_r	knee_angle_r	ankle_angle_r	subtalar_angle_r	mtp_angle_r	hip_flexion_l	hip_adduction_l	hip_rotation_l	knee_angle_l	ankle_angle_l	subtalar_angle_l	mtp_angle_l	lumbar_extension	lumbar_bending	lumbar_rotation	arm_flex_r	arm_add_r	arm_rot_r	elbow_flex_r	pro_sup_r	arm_flex_l	arm_add_l	arm_rot_l	elbow_flex_l	pro_sup_l
      3.81666670	      3.20892786	      0.07209601	      4.70297219	      0.87272099	      0.93018009	     -0.09089043	     -0.23150950	     -2.49865625	    -10.96210440	      0.74573197	      3.10181827	     -6.06161602	      0.00000000	     -0.15881850	     -2.36575364	    -14.22203203	      0.00000000	      4.59311868	      1.48335572	      0.00000000	    -10.00297977	      1.05632657	     -1.94481348	     20.39484865	    -10.31282591	     13.28604252	     36.69798595	     79.78124070	     22.12697331	     -8.32126866	     10.06155556	     32.13103149	     72.37438639
      3.83333330	      2.61476304	      0.08040948	      4.66025637	      0.87303971	      0.92922069	     -0.09153454	      0.82397568	     -2.58254005	    -10.35858061	      1.08142256	      2.33883261	     -7.56026038	      0.00000000	      0.76493249	     -2.30137520	    -13.78292249	      0.00000000	      3.70320068	      0.02970493	      0.00000000	     -9.75794351	      0.99456864	     -1.77974792	     21.87899103	    -10.84708175	     14.16215801	     38.03244041	     79.60628597	     23.32168707	     -8.37773290	      9.39075972	     33.49071659	     71.98167536
      3.85000000	      2.32679096	      0.11314374	      4.77535864	      0.87194328	      0.93132683	     -0.09359438	      1.33713140	     -2.68538279	    -10.42735857	      1.18631917	      2.09911446	     -7.53820331	      0.00000000	      1.33748109	     -2.22080979	    -13.79005333	      0.00000000	      3.44608919	      0.10297038	      0.00000000	     -9.73642007	      0.96268582	     -1.74956545	     23.62467619	    -10.99980809	     14.05299537	     38.51151878	     79.58016117	     25.02113648	     -8.45432992	      9.23734706	     34.02600548	     71.95043225
      3.86666670	      2.06795953	      0.17771482	      4.79635691	      0.87016993	      0.93357575	     -0.09358572	      1.96959974	     -2.86830533	    -10.53091037	      1.56618738	      1.78865783	     -7.59511789	      0.00000000	      1.87460917	     -2.09710364	    -13.84752300	      0.11799986	      3.02205099	      0.07871435	      0.00000000	     -9.68529736	      0.90969181	     -1.67685404	     25.44385337	    -11.19321432	     14.02980502	     39.04180176	     79.56474995	     26.79863414	     -8.49911573	      9.07493731	     34.64138227	     71.90993410
      3.88333330	      1.73682700	      0.25537059	      4.85322886	      0.86549330	      0.93985686	     -0.09387990	      2.57647467	     -3.04796528	    -10.51005361	      1.68958722	      1.50390299	     -7.61520118	      0.00000000	      2.50173022	     -1.94809011	    -13.82720123	      0.23623230	      2.62738144	      0.05267154	      0.00000000	     -9.63238589	      0.84570104	     -1.55038744	     27.25780716	    -11.34209039	     14.09915298	     39.55522257	     79.56416231	     28.46454454	     -8.45515747	      8.95207918	     35.20208201	     71.86959228
      3.90000000	      1.09801257	      0.27909972	      4.80107273	      0.86243065	      0.93674441	     -0.09397541	      3.64551889	     -3.20688894	     -9.94516788	      1.93685456	      0.96525943	     -8.83498315	      0.00000000	      3.45909612	     -1.81970579	    -13.62653725	      0.33989792	      2.08243934	     -1.01110852	      0.00000000	     -9.12856371	      0.77198350	     -1.38338523	     29.32701824	    -12.02652672	     16.31439666	     39.98292243	     79.65314040	     30.20061985	     -8.42474584	      8.87586496	     35.72752217	     71.54507482
      3.91666670	      0.86968955	      0.26449036	      4.89895447	      0.85864044	      0.92925451	     -0.09304356	      4.22357383	     -3.28443825	    -10.10309135	      2.13144458	      0.71297284	     -8.87489913	      0.00000000	      4.04674094	     -1.80210375	    -13.58706775	      0.54289361	      2.05584597	     -0.97949595	      0.00000000	     -9.14186027	      0.83527520	     -1.33008434	     31.60980273	    -12.22705566	     16.22742137	     40.44859311	     79.62201704	     32.26207368	     -8.44605711	      8.77619931	     36.31112858	     71.50700329
      3.93333330	      0.61609161	      0.28024784	      5.05246124	      0.85488201	      0.93444601	     -0.09344326	      4.89867059	     -3.42940088	    -10.27626652	      2.48902936	      0.50951247	     -9.06420793	      0.00000000	      4.80767536	     -1.78602122	    -13.65839163	      0.97276698	      1.95727090	     -1.06676612	      0.00000000	     -9.25510455	      0.83979659	     -1.23335095	     33.95101856	    -12.41528127	     16.26040807	     40.85318221	     79.60889538	     34.34604785	     -8.36715617	      8.73903834	     36.83856988	     71.46842970
      3.95000000	      0.38115931	      0.25874870	      5.19393483	      0.85397923	      0.93117757	     -0.09333534	      5.51511130	     -3.52381893	    -10.41025180	      2.87446743	      0.42864709	     -9.41563797	      0.00000000	      5.54967039	     -1.84901776	    -13.68876885	      1.52304892	      1.97911739	     -1.25236139	      0.00000000	     -9.22734131	      0.84879409	     -1.11045633	     36.21111458	    -12.66375217	     16.41922852	     41.14195753	     79.61184149	     36.36407137	     -8.21029196	      8.79133849	     37.34472893	     71.43200734
      3.96666670	     -0.44176019	      0.14367531	      5.17894321	      0.85110348	      0.92714489	     -0.09321880	      6.89469728	     -3.54361234	     -9.69875365	      3.46340589	     -0.70211659	    -12.15007074	      0.00000000	      7.03943738	     -1.98145991	    -13.38012906	      2.29611434	      1.73566000	     -2.74057719	      0.00000000	     -8.25985243	      0.89416094	     -0.93402013	     39.22585049	    -13.47673361	     20.62054281	     39.85675690	     79.67743845	     38.46903674	     -8.33042128	     10.56285545	     36.77334440	     70.97759026
      3.98333330	     -0.56574298	      0.08170658	      5.20865784	      0.85020853	      0.92555391	     -0.09421868	      7.39263146	     -3.60487592	     -9.98650537	      3.98005906	     -0.60798164	    -12.50520999	      0.00000000	      7.75732482	     -2.12688622	    -13.34434441	      3.12389746	      1.96653780	     -2.94599134	      0.00000000	     -8.30203415	      0.99903587	     -0.67790605	     41.46982022	    -13.73188956	     20.66355663	     40.10901837	     79.58649155	     40.30709985	     -8.15776437	     10.67080729	     37.42303483	     70.88163053
      4.00000000	     -1.38500395	     -0.01612105	      5.19507476	      0.84712612	      0.92231966	     -0.09455056	      8.75211148	     -3.68161493	     -9.54512284	      4.61792941	     -1.13777626	    -14.01664562	      0.00000000	      9.28519100	     -2.22405636	    -12.86082033	      4.04023741	      2.04412720	     -4.00645927	      0.00000000	     -7.38306729	      1.03706363	     -0.39398590	     43.93083956	    -14.36484726	     22.67502233	     39.42404805	     79.26193969	     42.23627488	     -8.10460348	     12.06711921	     37.82701518	     70.38184175
      4.01666670	     -1.49454450	      0.01238036	      5.23777430	      0.84419433	      0.92019335	     -0.09368149	      9.31792726	     -3.83103113	     -9.63882957	      5.25398570	     -1.01815350	    -14.32930072	      0.00000000	     10.08506955	     -2.28088955	    -12.74760471	      4.98967481	      2.16041473	     -4.16414404	      0.00000000	     -7.48365522	      1.05555450	     -0.27459672	     46.04687257	    -14.63193452	     22.54017903	     39.72268812	     79.19460063	     43.96352553	     -7.99092349	     12.12079118	     38.33708173	     70.32652779
      4.03333330	     -2.55195139	     -0.11669503	      5.19758532	      0.84273879	      0.91626243	     -0.09297821	     11.16383551	     -3.85347031	     -8.96618587	      6.26185057	     -1.42083534	    -16.53005336	      0.00000000	     12.07342145	     -2.44053991	    -12.03276669	      6.25377803	      2.46175194	     -5.70057182	      0.00000000	     -6.22022095	      1.05918030	     -0.02569735	     47.94477289	    -15.07650286	     24.35419418	     39.29112555	     78.90579482	     45.69315501	     -8.13203530	     13.97332422	     38.50557003	     69.94980858
      4.05000000	     -3.16931388	     -0.16843373	      5.19274240	      0.83669754	      0.91277588	     -0.09295964	     12.59652669	     -3.91755707	     -8.34981027	      7.26253062	     -1.52261453	    -18.09840964	      0.00000000	     13.72361614	     -2.54124382	    -11.36599295	      7.63623079	      2.68274767	     -7.14121756	      0.00000000	     -5.79112226	      1.04668075	      0.19933597	     50.31988671	    -15.44849639	     25.70988698	     38.93296652	     78.51822722	     48.00510588	     -8.19421309	     15.59543913	     38.62910390	     69.48498452
